<?xml version="1.0" encoding="UTF-8"?>
<svg id="Layer_1" data-name="Layer 1" xmlns="http://www.w3.org/2000/svg" viewBox="0 0 1000 1000">
  <defs>
    <style>
      .cls-1 {
        fill: none;
        stroke: #262626;
        stroke-miterlimit: 10;
        stroke-width: 50px;
      }

      .cls-2 {
        fill: #262626;
      }
    </style>
  </defs>
  <g>
    <path class="cls-2" d="M332.86,748.21l35.35-150.74c3.37-14.39-5.02-28.93-19.17-33.19l-147.23-44.38c-24.24-7.31-44.96,18.76-32.36,40.72l111.89,195.12c12.64,22.04,45.74,17.2,51.54-7.53Z"/>
    <path class="cls-2" d="M482.63,334.8l-112.41-103.36c-18.78-17.27-6.56-48.61,18.96-48.6l223.34.1c25.42.01,37.67,31.16,19.06,48.48l-110.94,103.26c-10.7,9.96-27.26,10.01-38.02.12Z"/>
    <path class="cls-2" d="M481.32,662.77l-112.91,105.99c-18.52,17.39-6.17,48.47,19.23,48.4l225.08-.6c25.32-.07,37.55-31.05,19.09-48.39l-112.17-105.39c-10.77-10.12-27.55-10.12-38.32,0Z"/>
    <path class="cls-2" d="M652.7,432.95l144.98,45.29c24.32,7.6,45.32-18.61,32.6-40.69l-111.07-192.82c-12.7-22.04-45.84-17.09-51.54,7.7l-33.91,147.53c-3.28,14.25,4.97,28.63,18.93,32.99Z"/>
    <path class="cls-2" d="M202.14,478.51l147.3-45.34c14.09-4.34,22.4-18.86,19-33.21l-35.26-148.71c-5.84-24.65-38.81-29.48-51.48-7.54l-112.04,194.05c-12.72,22.03,8.16,48.23,32.48,40.75Z"/>
    <path class="cls-2" d="M634.15,597.41l33.32,148.89c5.57,24.89,38.81,29.97,51.56,7.88l111.49-193.11c12.7-22-8.12-48.19-32.42-40.77l-144.81,44.23c-13.99,4.27-22.34,18.6-19.14,32.88Z"/>
  </g>
  <path class="cls-2" d="M634.76,423.45l-83.87,48.82c.37,2.46.56,4.98.56,7.54,0,28.01-22.66,50.72-50.61,50.72s-50.61-22.71-50.61-50.72c0-3.23.31-6.38.89-9.44-38.66-21.79-84.56-47.57-84.2-46.92.62,1.13,44.37,76.45,44.37,76.45l-44.37,77.37,66.75-38.82,67.17,115.73,66.02-116.22,67.9,39.31-46.07-76.89,46.07-76.92Z"/>
  <ellipse class="cls-2" cx="500.84" cy="479.58" rx="34.25" ry="34.33"/>
  <path class="cls-1" d="M519.23,213.42h-39.19c-90.22,0-173.58,48.13-218.69,126.26l-19.6,33.94c-45.11,78.13-45.11,174.39,0,252.52l19.6,33.94c45.11,78.13,128.47,126.26,218.69,126.26h39.19c90.22,0,173.58-48.13,218.69-126.26l19.6-33.94c45.11-78.13,45.11-174.39,0-252.52l-19.6-33.94c-45.11-78.13-128.47-126.26-218.69-126.26Z"/>
</svg>